<svg xmlns="http://www.w3.org/2000/svg" xmlns:xlink="http://www.w3.org/1999/xlink" width="567" zoomAndPan="magnify" viewBox="0 0 425.03998 283.499996" height="378" preserveAspectRatio="xMidYMid meet" version="1.0"><defs><filter x="0%" y="0%" width="100%" height="100%" id="id1"><feColorMatrix values="0 0 0 0 1 0 0 0 0 1 0 0 0 0 1 0 0 0 1 0" color-interpolation-filters="sRGB"/></filter><mask id="id2"><g filter="url(#id1)"><rect x="-42.503998" width="510.047976" fill="#000000" y="-28.35" height="340.199996" fill-opacity="0.7569"/></g></mask><clipPath id="id3"><path d="M 2 0.605469 L 79 0.605469 L 79 99 L 2 99 Z M 2 0.605469 " clip-rule="nonzero"/></clipPath><clipPath id="id4"><path d="M 175 0.605469 L 253 0.605469 L 253 99 L 175 99 Z M 175 0.605469 " clip-rule="nonzero"/></clipPath><clipPath id="id5"><path d="M 1.128906 113 L 28 113 L 28 146 L 1.128906 146 Z M 1.128906 113 " clip-rule="nonzero"/></clipPath><clipPath id="id6"><path d="M 32.078125 112.449219 L 62.792969 112.449219 L 62.792969 146.441406 L 32.078125 146.441406 Z M 32.078125 112.449219 " clip-rule="nonzero"/></clipPath><clipPath id="id7"><path d="M 128.128906 112.449219 L 159 112.449219 L 159 146.441406 L 128.128906 146.441406 Z M 128.128906 112.449219 " clip-rule="nonzero"/></clipPath><clipPath id="id8"><path d="M 163.722656 113.425781 L 190.539062 113.425781 L 190.539062 146.441406 L 163.722656 146.441406 Z M 163.722656 113.425781 " clip-rule="nonzero"/></clipPath><clipPath id="id9"><path d="M 8.671875 14.652344 L 64.296875 14.652344 L 64.296875 23.253906 L 8.671875 23.253906 Z M 85.386719 41.8125 L 85.710938 41.8125 L 85.710938 50.871094 L 85.386719 50.871094 Z M 40.796875 85.382812 L 85.710938 85.382812 L 85.710938 91.945312 L 40.796875 91.945312 Z M 40.796875 85.382812 " clip-rule="nonzero"/></clipPath><clipPath id="id10"><path d="M 135.355469 23.253906 L 171.523438 23.253906 L 171.523438 30.949219 L 135.355469 30.949219 Z M 95.460938 41.8125 L 171.523438 41.8125 L 171.523438 50.871094 L 95.460938 50.871094 Z M 95.460938 41.8125 " clip-rule="nonzero"/></clipPath><clipPath id="id11"><path d="M 192.640625 14.652344 L 233.3125 14.652344 L 233.3125 23.253906 L 192.640625 23.253906 Z M 220.777344 50.871094 L 256.359375 50.871094 L 256.359375 55.847656 L 220.777344 55.847656 Z M 183.691406 87.984375 L 259 87.984375 L 259 95.90625 L 183.691406 95.90625 Z M 183.691406 87.984375 " clip-rule="nonzero"/></clipPath><clipPath id="id12"><path d="M 24.300781 121.484375 L 34 121.484375 L 34 127.148438 L 24.300781 127.148438 Z M 24.300781 121.484375 " clip-rule="nonzero"/></clipPath><clipPath id="id13"><path d="M 39 121.484375 L 54.351562 121.484375 L 54.351562 127.148438 L 39 127.148438 Z M 39 121.484375 " clip-rule="nonzero"/></clipPath><clipPath id="id14"><path d="M 76.5 137.78125 L 96.925781 137.78125 L 96.925781 142.308594 L 76.5 142.308594 Z M 76.5 137.78125 " clip-rule="nonzero"/></clipPath><clipPath id="id15"><path d="M 112.527344 137.78125 L 127.789062 137.78125 L 127.789062 142.308594 L 112.527344 142.308594 Z M 112.527344 137.78125 " clip-rule="nonzero"/></clipPath><clipPath id="id16"><path d="M 151.515625 127.148438 L 166 127.148438 L 166 131.894531 L 151.515625 131.894531 Z M 151.515625 127.148438 " clip-rule="nonzero"/></clipPath><clipPath id="id17"><path d="M 170.0625 127.148438 L 196.878906 127.148438 L 196.878906 131.894531 L 170.0625 131.894531 Z M 170.0625 127.148438 " clip-rule="nonzero"/></clipPath><clipPath id="id18"><path d="M 214.105469 143.210938 L 229.546875 143.210938 L 229.546875 146 L 214.105469 146 Z M 214.105469 143.210938 " clip-rule="nonzero"/></clipPath><clipPath id="id19"><path d="M 249.40625 124.652344 L 262.882812 124.652344 L 262.882812 129.644531 L 249.40625 129.644531 Z M 235.882812 143.210938 L 261.554688 143.210938 L 261.554688 146 L 235.882812 146 Z M 235.882812 143.210938 " clip-rule="nonzero"/></clipPath><clipPath id="id20"><rect x="0" width="264" y="0" height="147"/></clipPath></defs><g mask="url(#id2)"><g transform="matrix(1, 0, 0, 1, 80, 68)"><g clip-path="url(#id20)"><g clip-path="url(#id3)"><path fill="#fa4dc8" d="M 44.535156 98.3125 L 67.347656 98.3125 L 67.347656 91.949219 L 44.492188 91.949219 Z M 67.347656 61.09375 L 67.347656 38.53125 L 47.203125 38.53125 L 44.6875 61.09375 L 26.316406 61.09375 L 43.410156 23.253906 L 20.277344 23.253906 L 2.167969 62.917969 L 2.167969 77.730469 L 44.386719 77.730469 L 44.441406 85.382812 L 67.347656 85.382812 L 67.347656 77.730469 L 78.605469 77.730469 L 78.605469 61.09375 Z M 30.613281 0.609375 L 24.203125 14.652344 L 47.300781 14.652344 L 50.460938 7.65625 L 30.613281 0.609375 " fill-opacity="1" fill-rule="nonzero"/></g><path fill="#fa4dc8" d="M 162.445312 30.945312 L 139.15625 30.945312 C 139.71875 33.894531 140.105469 37.519531 140.320312 41.808594 L 164.148438 41.808594 C 163.816406 37.921875 163.246094 34.300781 162.445312 30.945312 Z M 154.820312 13.863281 C 148.347656 5.3125 138.992188 1.035156 126.75 1.035156 C 114.5 1.035156 105.148438 5.3125 98.679688 13.863281 C 93.472656 20.746094 90.363281 30.054688 89.34375 41.808594 L 113.179688 41.808594 C 113.402344 37.492188 113.804688 33.859375 114.378906 30.917969 C 115.3125 26.125 116.773438 22.695312 118.75 20.632812 C 120.726562 18.5625 123.386719 17.527344 126.75 17.527344 C 130.105469 17.527344 132.769531 18.515625 134.75 20.488281 C 135.480469 21.214844 136.132812 22.140625 136.714844 23.253906 L 160.050781 23.253906 C 158.636719 19.734375 156.894531 16.605469 154.820312 13.863281 Z M 140.523438 50.867188 C 140.523438 59.390625 140.058594 66.0625 139.117188 70.890625 C 138.179688 75.734375 136.722656 79.164062 134.75 81.179688 C 132.769531 83.203125 130.105469 84.214844 126.75 84.214844 C 123.386719 84.214844 120.726562 83.175781 118.75 81.113281 C 116.773438 79.046875 115.3125 75.589844 114.378906 70.75 C 113.4375 65.921875 112.96875 59.296875 112.96875 50.867188 L 88.972656 50.867188 C 88.980469 66.8125 92.214844 79.101562 98.679688 87.738281 C 105.148438 96.382812 114.5 100.710938 126.75 100.710938 C 138.992188 100.710938 148.347656 96.382812 154.820312 87.738281 C 161.28125 79.101562 164.511719 66.8125 164.523438 50.867188 L 140.523438 50.867188 " fill-opacity="1" fill-rule="nonzero"/><g clip-path="url(#id4)"><path fill="#fa4dc8" d="M 204.21875 0.609375 L 197.8125 14.652344 L 220.914062 14.652344 L 224.070312 7.65625 Z M 218.128906 95.90625 L 218.148438 98.3125 L 240.957031 98.3125 L 240.957031 95.90625 Z M 240.957031 61.09375 L 240.957031 55.847656 L 218.878906 55.847656 L 218.289062 61.09375 L 199.925781 61.09375 L 217.023438 23.253906 L 193.886719 23.253906 L 175.78125 62.917969 L 175.78125 77.730469 L 218 77.730469 L 218.074219 87.984375 L 240.957031 87.984375 L 240.957031 77.730469 L 252.21875 77.730469 L 252.21875 61.09375 Z M 220.8125 38.53125 L 219.4375 50.867188 L 240.957031 50.867188 L 240.957031 38.53125 L 220.8125 38.53125 " fill-opacity="1" fill-rule="nonzero"/></g><g clip-path="url(#id5)"><path fill="#fa4dc8" d="M 20 127.148438 C 20.03125 130.714844 20.378906 134.496094 21.0625 138.503906 L 11.097656 113.617188 L 1.179688 113.617188 L 1.179688 145.671875 L 8.277344 145.671875 L 8.277344 133.925781 C 8.277344 131.367188 8.191406 129.152344 8.007812 127.285156 C 7.832031 125.417969 7.582031 123.265625 7.253906 120.835938 L 16.976562 145.671875 L 27.136719 145.671875 L 27.136719 127.148438 Z M 19.992188 113.617188 L 19.992188 121.484375 L 27.136719 121.484375 L 27.136719 113.617188 L 19.992188 113.617188 " fill-opacity="1" fill-rule="nonzero"/></g><g clip-path="url(#id6)"><path fill="#fa4dc8" d="M 58.753906 117.222656 C 56.082031 114.292969 52.347656 112.828125 47.546875 112.828125 C 44.410156 112.828125 41.695312 113.5 39.433594 114.839844 C 37.164062 116.183594 35.417969 118.117188 34.207031 120.644531 C 34.070312 120.921875 33.949219 121.199219 33.832031 121.484375 L 42.164062 121.484375 C 42.246094 121.332031 42.332031 121.179688 42.421875 121.035156 C 43.539062 119.265625 45.25 118.382812 47.546875 118.382812 C 49.851562 118.382812 51.566406 119.257812 52.699219 121.019531 C 53.839844 122.777344 54.402344 125.640625 54.402344 129.621094 C 54.402344 133.597656 53.84375 136.480469 52.726562 138.25 C 51.609375 140.023438 49.886719 140.90625 47.546875 140.90625 C 45.285156 140.90625 43.582031 140.015625 42.445312 138.222656 C 41.3125 136.4375 40.75 133.566406 40.75 129.621094 C 40.75 128.746094 40.777344 127.917969 40.835938 127.148438 L 32.496094 127.148438 C 32.421875 127.941406 32.382812 128.765625 32.382812 129.621094 C 32.382812 133.171875 32.992188 136.199219 34.207031 138.710938 C 35.417969 141.226562 37.164062 143.144531 39.433594 144.46875 C 41.695312 145.792969 44.410156 146.460938 47.546875 146.460938 C 50.691406 146.460938 53.40625 145.789062 55.6875 144.445312 C 57.972656 143.105469 59.722656 141.167969 60.941406 138.644531 C 62.15625 136.113281 62.765625 133.105469 62.765625 129.621094 C 62.765625 124.285156 61.421875 120.15625 58.753906 117.222656 " fill-opacity="1" fill-rule="nonzero"/></g><path fill="#fa4dc8" d="M 73.070312 142.304688 L 73.070312 145.671875 L 81.042969 145.671875 L 81.042969 142.304688 Z M 64.367188 113.617188 L 64.367188 119.441406 L 73.070312 119.441406 L 73.070312 137.78125 L 81.042969 137.78125 L 81.042969 119.441406 L 89.351562 119.441406 L 90.132812 113.617188 L 64.367188 113.617188 " fill-opacity="1" fill-rule="nonzero"/><path fill="#fa4dc8" d="M 105.925781 142.304688 L 105.925781 145.671875 L 113.898438 145.671875 L 113.898438 142.304688 Z M 125.171875 119.027344 L 126 113.617188 L 105.925781 113.617188 L 105.925781 137.78125 L 113.898438 137.78125 L 113.898438 132.953125 L 123.714844 132.953125 L 123.714844 127.542969 L 113.898438 127.542969 L 113.898438 119.027344 L 125.171875 119.027344 " fill-opacity="1" fill-rule="nonzero"/><g clip-path="url(#id7)"><path fill="#fa4dc8" d="M 150.515625 131.894531 C 150.339844 134.71875 149.8125 136.839844 148.917969 138.25 C 147.796875 140.023438 146.070312 140.90625 143.738281 140.90625 C 141.472656 140.90625 139.773438 140.015625 138.632812 138.222656 C 137.503906 136.4375 136.929688 133.566406 136.929688 129.621094 C 136.929688 125.675781 137.492188 122.8125 138.613281 121.035156 C 139.734375 119.265625 141.4375 118.382812 143.738281 118.382812 C 146.042969 118.382812 147.757812 119.257812 148.890625 121.019531 C 149.777344 122.390625 150.3125 124.425781 150.503906 127.148438 L 158.847656 127.148438 C 158.496094 122.992188 157.1875 119.6875 154.941406 117.222656 C 152.273438 114.292969 148.539062 112.828125 143.738281 112.828125 C 140.597656 112.828125 137.886719 113.5 135.621094 114.839844 C 133.355469 116.183594 131.613281 118.117188 130.394531 120.644531 C 129.183594 123.175781 128.574219 126.164062 128.574219 129.621094 C 128.574219 133.171875 129.183594 136.199219 130.394531 138.710938 C 131.613281 141.226562 133.355469 143.144531 135.621094 144.46875 C 137.886719 145.792969 140.597656 146.460938 143.738281 146.460938 C 146.882812 146.460938 149.59375 145.789062 151.878906 144.445312 C 154.164062 143.105469 155.917969 141.167969 157.132812 138.644531 C 158.074219 136.683594 158.652344 134.425781 158.859375 131.894531 L 150.515625 131.894531 " fill-opacity="1" fill-rule="nonzero"/></g><g clip-path="url(#id8)"><path fill="#fa4dc8" d="M 182.09375 131.894531 L 182.09375 134.707031 C 182.09375 136.777344 181.675781 138.3125 180.851562 139.308594 C 180.023438 140.316406 178.703125 140.816406 176.886719 140.816406 C 175.101562 140.816406 173.800781 140.316406 172.976562 139.308594 C 172.148438 138.3125 171.734375 136.777344 171.734375 134.707031 L 171.734375 131.894531 L 163.761719 131.894531 L 163.761719 135.03125 C 163.761719 138.515625 164.882812 141.292969 167.117188 143.355469 C 169.355469 145.425781 172.609375 146.460938 176.886719 146.460938 C 179.738281 146.460938 182.152344 145.964844 184.132812 144.980469 C 186.105469 143.996094 187.589844 142.636719 188.578125 140.90625 C 189.5625 139.179688 190.058594 137.222656 190.058594 135.03125 L 190.058594 131.894531 Z M 182.09375 113.617188 L 182.09375 127.148438 L 190.058594 127.148438 L 190.058594 113.617188 Z M 163.761719 113.617188 L 163.761719 127.148438 L 171.734375 127.148438 L 171.734375 113.617188 L 163.761719 113.617188 " fill-opacity="1" fill-rule="nonzero"/></g><path fill="#fa4dc8" d="M 215.242188 113.617188 L 215.242188 126.5625 C 215.242188 130.300781 215.59375 134.277344 216.304688 138.503906 L 206.339844 113.617188 L 196.429688 113.617188 L 196.429688 145.671875 L 203.527344 145.671875 L 203.527344 133.925781 C 203.527344 131.367188 203.433594 129.152344 203.253906 127.285156 C 203.078125 125.417969 202.828125 123.265625 202.503906 120.835938 L 211.261719 143.214844 L 222.382812 143.214844 L 222.382812 113.617188 L 215.242188 113.617188 " fill-opacity="1" fill-rule="nonzero"/><path fill="#fa4dc8" d="M 247.804688 129.648438 C 247.785156 133.566406 247.101562 136.292969 245.765625 137.828125 C 244.402344 139.390625 242.410156 140.164062 239.785156 140.164062 L 237.15625 140.164062 L 237.15625 119.125 L 239.683594 119.125 C 241.40625 119.125 242.84375 119.40625 244.007812 119.976562 C 245.175781 120.550781 246.105469 121.589844 246.78125 123.09375 C 246.992188 123.558594 247.167969 124.070312 247.308594 124.648438 L 255.648438 124.648438 C 254.988281 121.160156 253.53125 118.613281 251.277344 117.015625 C 248.082031 114.75 243.84375 113.617188 238.566406 113.617188 L 229.191406 113.617188 L 229.191406 143.214844 L 249.648438 143.214844 C 250.265625 142.859375 250.84375 142.46875 251.398438 142.039062 C 254.484375 139.640625 256.042969 135.507812 256.066406 129.648438 L 247.804688 129.648438 " fill-opacity="1" fill-rule="nonzero"/><g clip-path="url(#id9)"><path fill="#fa4dc8" d="M 74.125 77.726562 L 74.125 98.308594 L 51.3125 98.308594 L 51.164062 77.726562 L 8.949219 77.726562 L 8.949219 62.921875 L 37.390625 0.609375 L 57.238281 7.660156 L 33.09375 61.089844 L 51.460938 61.089844 L 53.980469 38.535156 L 74.125 38.535156 L 74.125 61.089844 L 85.386719 61.089844 L 85.386719 77.726562 L 74.125 77.726562 " fill-opacity="1" fill-rule="nonzero"/></g><g clip-path="url(#id10)"><path fill="#fa4dc8" d="M 125.527344 20.628906 C 123.550781 22.699219 122.097656 26.128906 121.15625 30.921875 C 120.21875 35.714844 119.75 42.339844 119.75 50.800781 C 119.75 59.257812 120.21875 65.910156 121.15625 70.746094 C 122.097656 75.589844 123.550781 79.042969 125.527344 81.109375 C 127.5 83.179688 130.167969 84.210938 133.527344 84.210938 C 136.882812 84.210938 139.550781 83.203125 141.527344 81.179688 C 143.5 79.160156 144.957031 75.730469 145.894531 70.890625 C 146.832031 66.046875 147.304688 59.351562 147.304688 50.800781 C 147.304688 42.246094 146.832031 35.550781 145.894531 30.707031 C 144.957031 25.871094 143.5 22.464844 141.527344 20.488281 C 139.550781 18.515625 136.882812 17.527344 133.527344 17.527344 C 130.167969 17.527344 127.5 18.5625 125.527344 20.628906 Z M 161.597656 13.863281 C 168.066406 22.414062 171.300781 34.726562 171.300781 50.800781 C 171.300781 66.78125 168.066406 79.089844 161.597656 87.738281 C 155.128906 96.382812 145.769531 100.707031 133.527344 100.707031 C 121.28125 100.707031 111.921875 96.382812 105.457031 87.738281 C 98.984375 79.089844 95.753906 66.78125 95.753906 50.800781 C 95.753906 34.726562 98.984375 22.414062 105.457031 13.863281 C 111.921875 5.308594 121.28125 1.03125 133.527344 1.03125 C 145.769531 1.03125 155.128906 5.308594 161.597656 13.863281 " fill-opacity="1" fill-rule="nonzero"/></g><g clip-path="url(#id11)"><path fill="#fa4dc8" d="M 247.738281 77.726562 L 247.738281 98.308594 L 224.921875 98.308594 L 224.777344 77.726562 L 182.558594 77.726562 L 182.558594 62.921875 L 211 0.609375 L 230.851562 7.660156 L 206.703125 61.089844 L 225.070312 61.089844 L 227.589844 38.535156 L 247.738281 38.535156 L 247.738281 61.089844 L 258.996094 61.089844 L 258.996094 77.726562 L 247.738281 77.726562 " fill-opacity="1" fill-rule="nonzero"/></g><g clip-path="url(#id12)"><path fill="#fa4dc8" d="M 23.757812 145.671875 L 14.035156 120.832031 C 14.359375 123.265625 14.609375 125.417969 14.789062 127.285156 C 14.964844 129.152344 15.054688 131.363281 15.054688 133.921875 L 15.054688 145.671875 L 7.960938 145.671875 L 7.960938 113.617188 L 17.875 113.617188 L 27.839844 138.503906 C 27.125 134.277344 26.769531 130.300781 26.769531 126.566406 L 26.769531 113.617188 L 33.914062 113.617188 L 33.914062 145.671875 L 23.757812 145.671875 " fill-opacity="1" fill-rule="nonzero"/></g><g clip-path="url(#id13)"><path fill="#fa4dc8" d="M 49.203125 121.039062 C 48.082031 122.8125 47.523438 125.671875 47.523438 129.621094 C 47.523438 133.566406 48.089844 136.4375 49.222656 138.222656 C 50.359375 140.015625 52.058594 140.910156 54.328125 140.910156 C 56.660156 140.910156 58.386719 140.019531 59.503906 138.246094 C 60.625 136.476562 61.183594 133.597656 61.183594 129.621094 C 61.183594 125.640625 60.617188 122.773438 59.480469 121.015625 C 58.347656 119.257812 56.628906 118.378906 54.328125 118.378906 C 52.027344 118.378906 50.316406 119.265625 49.203125 121.039062 Z M 65.53125 117.222656 C 68.207031 120.152344 69.542969 124.285156 69.542969 129.621094 C 69.542969 133.105469 68.933594 136.113281 67.71875 138.640625 C 66.503906 141.167969 64.753906 143.105469 62.46875 144.445312 C 60.183594 145.789062 57.472656 146.457031 54.328125 146.457031 C 51.1875 146.457031 48.480469 145.792969 46.210938 144.46875 C 43.941406 143.144531 42.203125 141.226562 40.988281 138.710938 C 39.773438 136.195312 39.164062 133.167969 39.164062 129.621094 C 39.164062 126.167969 39.773438 123.175781 40.988281 120.644531 C 42.203125 118.117188 43.941406 116.179688 46.210938 114.839844 C 48.480469 113.5 51.1875 112.828125 54.328125 112.828125 C 59.125 112.828125 62.859375 114.292969 65.53125 117.222656 " fill-opacity="1" fill-rule="nonzero"/></g><g clip-path="url(#id14)"><path fill="#fa4dc8" d="M 87.816406 119.445312 L 87.816406 145.671875 L 79.847656 145.671875 L 79.847656 119.445312 L 71.144531 119.445312 L 71.144531 113.617188 L 96.90625 113.617188 L 96.128906 119.445312 L 87.816406 119.445312 " fill-opacity="1" fill-rule="nonzero"/></g><g clip-path="url(#id15)"><path fill="#fa4dc8" d="M 120.675781 119.027344 L 120.675781 127.539062 L 130.492188 127.539062 L 130.492188 132.949219 L 120.675781 132.949219 L 120.675781 145.671875 L 112.703125 145.671875 L 112.703125 113.617188 L 132.777344 113.617188 L 131.953125 119.027344 L 120.675781 119.027344 " fill-opacity="1" fill-rule="nonzero"/></g><g clip-path="url(#id16)"><path fill="#fa4dc8" d="M 145.390625 121.039062 C 144.269531 122.8125 143.714844 125.671875 143.714844 129.621094 C 143.714844 133.566406 144.277344 136.4375 145.414062 138.222656 C 146.550781 140.015625 148.25 140.910156 150.519531 140.910156 C 152.851562 140.910156 154.578125 140.019531 155.695312 138.246094 C 156.8125 136.476562 157.371094 133.597656 157.371094 129.621094 C 157.371094 125.640625 156.804688 122.773438 155.671875 121.015625 C 154.535156 119.257812 152.820312 118.378906 150.519531 118.378906 C 148.21875 118.378906 146.507812 119.265625 145.390625 121.039062 Z M 161.722656 117.222656 C 164.394531 120.152344 165.730469 124.285156 165.730469 129.621094 C 165.730469 133.105469 165.125 136.113281 163.910156 138.640625 C 162.695312 141.167969 160.945312 143.105469 158.660156 144.445312 C 156.375 145.789062 153.660156 146.457031 150.519531 146.457031 C 147.375 146.457031 144.667969 145.792969 142.402344 144.46875 C 140.132812 143.144531 138.390625 141.226562 137.175781 138.710938 C 135.960938 136.195312 135.355469 133.167969 135.355469 129.621094 C 135.355469 126.167969 135.960938 123.175781 137.175781 120.644531 C 138.390625 118.117188 140.132812 116.179688 142.402344 114.839844 C 144.667969 113.5 147.375 112.828125 150.519531 112.828125 C 155.3125 112.828125 159.050781 114.292969 161.722656 117.222656 " fill-opacity="1" fill-rule="nonzero"/></g><g clip-path="url(#id17)"><path fill="#fa4dc8" d="M 195.355469 140.910156 C 194.367188 142.636719 192.886719 143.992188 190.910156 144.980469 C 188.933594 145.964844 186.519531 146.457031 183.667969 146.457031 C 179.390625 146.457031 176.132812 145.425781 173.898438 143.359375 C 171.660156 141.292969 170.542969 138.519531 170.542969 135.03125 L 170.542969 113.617188 L 178.515625 113.617188 L 178.515625 134.707031 C 178.515625 136.773438 178.925781 138.308594 179.753906 139.3125 C 180.582031 140.316406 181.882812 140.816406 183.667969 140.816406 C 185.480469 140.816406 186.804688 140.316406 187.628906 139.3125 C 188.453125 138.308594 188.867188 136.773438 188.867188 134.707031 L 188.867188 113.617188 L 196.839844 113.617188 L 196.839844 135.03125 C 196.839844 137.222656 196.34375 139.179688 195.355469 140.910156 " fill-opacity="1" fill-rule="nonzero"/></g><g clip-path="url(#id18)"><path fill="#fa4dc8" d="M 219.003906 145.671875 L 209.28125 120.832031 C 209.605469 123.265625 209.855469 125.417969 210.035156 127.285156 C 210.214844 129.152344 210.300781 131.363281 210.300781 133.921875 L 210.300781 145.671875 L 203.207031 145.671875 L 203.207031 113.617188 L 213.121094 113.617188 L 223.085938 138.503906 C 222.375 134.277344 222.015625 130.300781 222.015625 126.566406 L 222.015625 113.617188 L 229.164062 113.617188 L 229.164062 145.671875 L 219.003906 145.671875 " fill-opacity="1" fill-rule="nonzero"/></g><g clip-path="url(#id19)"><path fill="#fa4dc8" d="M 243.9375 140.167969 L 246.5625 140.167969 C 249.1875 140.167969 251.179688 139.386719 252.539062 137.832031 C 253.902344 136.273438 254.582031 133.492188 254.582031 129.484375 C 254.582031 126.738281 254.242188 124.609375 253.5625 123.097656 C 252.882812 121.589844 251.957031 120.546875 250.789062 119.976562 C 249.625 119.40625 248.183594 119.121094 246.464844 119.121094 L 243.9375 119.121094 Z M 258.058594 117.015625 C 261.246094 119.28125 262.847656 123.4375 262.847656 129.484375 C 262.847656 135.433594 261.289062 139.621094 258.179688 142.042969 C 255.066406 144.460938 251.035156 145.671875 246.074219 145.671875 L 235.964844 145.671875 L 235.964844 113.617188 L 245.347656 113.617188 C 250.628906 113.617188 254.867188 114.75 258.058594 117.015625 " fill-opacity="1" fill-rule="nonzero"/></g></g></g></g></svg>