<svg xmlns="http://www.w3.org/2000/svg" xmlns:xlink="http://www.w3.org/1999/xlink" width="567" zoomAndPan="magnify" viewBox="0 0 425.03998 283.499996" height="378" preserveAspectRatio="xMidYMid meet" version="1.0"><defs><clipPath id="id1"><path d="M 100.066406 109 L 323.679688 109 L 323.679688 203.496094 L 100.066406 203.496094 Z M 100.066406 109 " clip-rule="nonzero"/></clipPath><clipPath id="id2"><path d="M 207 57.660156 L 217 57.660156 L 217 96 L 207 96 Z M 207 57.660156 " clip-rule="nonzero"/></clipPath></defs><g clip-path="url(#id1)"><path fill="#000000" d="M 322.078125 152.953125 C 321.574219 152.507812 309.472656 141.890625 289.859375 131.167969 C 271.699219 121.246094 243.433594 109.414062 211.898438 109.414062 C 180.363281 109.414062 152.097656 121.246094 133.9375 131.167969 C 114.320312 141.890625 102.222656 152.507812 101.714844 152.953125 C 100.714844 153.835938 100.140625 155.109375 100.140625 156.449219 C 100.140625 157.789062 100.714844 159.0625 101.714844 159.945312 C 102.222656 160.390625 114.320312 171.007812 133.9375 181.726562 C 152.09375 191.652344 180.363281 203.484375 211.898438 203.484375 C 243.433594 203.484375 271.699219 191.652344 289.859375 181.726562 C 309.472656 171.007812 321.574219 160.390625 322.078125 159.945312 C 323.078125 159.0625 323.652344 157.789062 323.652344 156.449219 C 323.652344 155.109375 323.078125 153.835938 322.078125 152.953125 Z M 178.617188 156.449219 C 178.617188 138.035156 193.546875 123.058594 211.898438 123.058594 C 230.246094 123.058594 245.175781 138.035156 245.175781 156.449219 C 245.175781 174.859375 230.25 189.839844 211.898438 189.839844 C 193.546875 189.839844 178.617188 174.859375 178.617188 156.449219 Z M 138.59375 139.238281 C 150.988281 132.480469 168.332031 124.792969 188.121094 121.039062 C 176.792969 128.722656 169.332031 141.726562 169.332031 156.449219 C 169.332031 171.171875 176.792969 184.175781 188.121094 191.859375 C 168.332031 188.105469 150.988281 180.417969 138.59375 173.660156 C 126.457031 167.046875 117.210938 160.371094 112.160156 156.449219 C 117.210938 152.527344 126.457031 145.847656 138.59375 139.238281 Z M 235.652344 191.875 C 246.992188 184.195312 254.464844 171.179688 254.464844 156.449219 C 254.464844 141.726562 247 128.722656 235.671875 121.039062 C 255.460938 124.792969 272.808594 132.480469 285.203125 139.238281 C 297.335938 145.847656 306.578125 152.523438 311.628906 156.445312 C 301.015625 164.664062 271.847656 185.023438 235.652344 191.875 Z M 235.652344 191.875 " fill-opacity="1" fill-rule="nonzero"/></g><path fill="#e6e6e6" d="M 188.09375 191.851562 C 187.460938 191.421875 186.84375 190.972656 186.242188 190.503906 C 175.976562 182.699219 169.332031 170.339844 169.332031 156.449219 C 169.332031 149.535156 170.980469 143 173.898438 137.214844 C 163.546875 140.476562 154.46875 144.714844 147.371094 148.585938 C 137.394531 154.023438 126.996094 160.886719 122.839844 164.109375 C 122.882812 164.144531 122.933594 164.179688 122.976562 164.214844 C 127.386719 167.15625 132.640625 170.417969 138.59375 173.660156 C 150.980469 180.414062 168.316406 188.097656 188.09375 191.851562 Z M 188.09375 191.851562 " fill-opacity="1" fill-rule="nonzero"/><path fill="#e6e6e6" d="M 276.402344 148.585938 C 269.3125 144.71875 260.242188 140.484375 249.902344 137.222656 C 252.820312 143.003906 254.464844 149.539062 254.464844 156.449219 C 254.464844 171.179688 246.992188 184.191406 235.652344 191.875 C 236.164062 191.777344 236.675781 191.675781 237.1875 191.574219 C 237.40625 191.527344 237.621094 191.484375 237.835938 191.441406 C 238.117188 191.382812 238.394531 191.324219 238.671875 191.265625 C 238.960938 191.203125 239.25 191.140625 239.539062 191.078125 C 239.722656 191.039062 239.902344 191 240.082031 190.957031 C 240.4375 190.878906 240.789062 190.800781 241.140625 190.71875 C 241.199219 190.707031 241.261719 190.691406 241.324219 190.675781 C 243.53125 190.164062 245.710938 189.605469 247.867188 189.003906 C 247.980469 188.972656 248.089844 188.941406 248.203125 188.910156 C 248.519531 188.820312 248.835938 188.730469 249.152344 188.640625 C 270.78125 182.394531 289.011719 172.054688 300.933594 164.109375 C 296.777344 160.886719 286.378906 154.023438 276.402344 148.585938 Z M 276.402344 148.585938 " fill-opacity="1" fill-rule="nonzero"/><path fill="#56aeff" d="M 245.175781 156.449219 C 245.175781 138.035156 230.25 123.058594 211.898438 123.058594 C 193.546875 123.058594 178.617188 138.035156 178.617188 156.449219 C 178.617188 174.859375 193.546875 189.839844 211.898438 189.839844 C 230.25 189.839844 245.175781 174.859375 245.175781 156.449219 Z M 211.898438 175.320312 C 201.527344 175.320312 193.089844 166.855469 193.089844 156.449219 C 193.089844 146.042969 201.527344 137.578125 211.898438 137.578125 C 214.460938 137.578125 216.542969 139.664062 216.542969 142.238281 C 216.542969 143.523438 216.023438 144.691406 215.179688 145.53125 L 222.777344 153.152344 C 223.617188 152.308594 224.777344 151.789062 226.058594 151.789062 C 228.625 151.789062 230.703125 153.875 230.703125 156.449219 C 230.703125 166.855469 222.269531 175.320312 211.898438 175.320312 Z M 211.898438 175.320312 " fill-opacity="1" fill-rule="nonzero"/><path fill="#ffffff" d="M 211.898438 146.898438 C 206.648438 146.898438 202.378906 151.183594 202.378906 156.449219 C 202.378906 161.714844 206.648438 166 211.898438 166 C 217.148438 166 221.417969 161.714844 221.417969 156.449219 C 221.417969 155.160156 221.9375 153.996094 222.777344 153.152344 L 215.179688 145.53125 C 214.339844 146.375 213.179688 146.898438 211.898438 146.898438 Z M 211.898438 146.898438 " fill-opacity="1" fill-rule="nonzero"/><path fill="#000000" d="M 226.0625 151.789062 C 224.777344 151.789062 223.617188 152.3125 222.777344 153.152344 C 221.9375 153.996094 221.417969 155.164062 221.417969 156.449219 C 221.417969 161.714844 217.148438 166 211.898438 166 C 206.648438 166 202.378906 161.714844 202.378906 156.449219 C 202.378906 151.183594 206.648438 146.898438 211.898438 146.898438 C 213.179688 146.898438 214.339844 146.375 215.179688 145.53125 C 216.023438 144.6875 216.542969 143.523438 216.542969 142.238281 C 216.542969 139.664062 214.460938 137.578125 211.898438 137.578125 C 201.527344 137.578125 193.09375 146.042969 193.09375 156.449219 C 193.09375 166.855469 201.527344 175.320312 211.898438 175.320312 C 222.269531 175.320312 230.703125 166.855469 230.703125 156.449219 C 230.703125 153.875 228.625 151.789062 226.0625 151.789062 Z M 226.0625 151.789062 " fill-opacity="1" fill-rule="nonzero"/><g clip-path="url(#id2)"><path fill="#f9e830" d="M 211.898438 95.414062 C 214.460938 95.414062 216.542969 93.328125 216.542969 90.753906 L 216.542969 62.332031 C 216.542969 59.757812 214.460938 57.671875 211.898438 57.671875 C 209.332031 57.671875 207.253906 59.757812 207.253906 62.332031 L 207.253906 90.753906 C 207.253906 93.328125 209.332031 95.414062 211.898438 95.414062 Z M 211.898438 95.414062 " fill-opacity="1" fill-rule="nonzero"/></g><path fill="#f9e830" d="M 247.570312 103.203125 C 248.28125 103.601562 249.054688 103.789062 249.816406 103.789062 C 251.449219 103.789062 253.035156 102.921875 253.882812 101.386719 L 267.613281 76.53125 C 268.859375 74.28125 268.046875 71.445312 265.804688 70.195312 C 263.5625 68.949219 260.734375 69.761719 259.492188 72.011719 L 245.757812 96.871094 C 244.515625 99.121094 245.324219 101.957031 247.570312 103.203125 Z M 247.570312 103.203125 " fill-opacity="1" fill-rule="nonzero"/><path fill="#f9e830" d="M 169.914062 101.386719 C 170.761719 102.921875 172.347656 103.789062 173.980469 103.789062 C 174.742188 103.789062 175.511719 103.601562 176.226562 103.203125 C 178.46875 101.957031 179.28125 99.121094 178.035156 96.871094 L 164.304688 72.011719 C 163.058594 69.761719 160.234375 68.949219 157.992188 70.195312 C 155.75 71.445312 154.9375 74.28125 156.179688 76.53125 Z M 169.914062 101.386719 " fill-opacity="1" fill-rule="nonzero"/></svg>